<svg id="地址簿" xmlns="http://www.w3.org/2000/svg" width="24" height="24" viewBox="0 0 48 48">
  <metadata><?xpacket begin="﻿" id="W5M0MpCehiHzreSzNTczkc9d"?>
<x:xmpmeta xmlns:x="adobe:ns:meta/" x:xmptk="Adobe XMP Core 5.6-c138 79.159824, 2016/09/14-01:09:01        ">
   <rdf:RDF xmlns:rdf="http://www.w3.org/1999/02/22-rdf-syntax-ns#">
      <rdf:Description rdf:about=""/>
   </rdf:RDF>
</x:xmpmeta>
                                                                                                    
                                                                                                    
                                                                                                    
                                                                                                    
                                                                                                    
                                                                                                    
                                                                                                    
                                                                                                    
                                                                                                    
                                                                                                    
                                                                                                    
                                                                                                    
                                                                                                    
                                                                                                    
                                                                                                    
                                                                                                    
                                                                                                    
                                                                                                    
                                                                                                    
                                                                                                    
                           
<?xpacket end="w"?></metadata>
<defs>
    <style>
      .cls-1 {
        fill: #999;
        fill-rule: evenodd;
      }
    </style>
  </defs>
  <path id="_1" data-name="1" class="cls-1" d="M38,46H14a6,6,0,0,1-6-6V34H6a2,2,0,0,1,0-4H8V18H6a2,2,0,0,1,0-4H8V8a6,6,0,0,1,6-6H38a6,6,0,0,1,6,6V40A6,6,0,0,1,38,46Zm2-36a4,4,0,0,0-4-4H16a4,4,0,0,0-4,4v4h2a2,2,0,0,1,0,4H12V30h2a2,2,0,0,1,0,4H12v4a4,4,0,0,0,4,4H36a4,4,0,0,0,4-4V10Z"/>
  <path id="_" data-name="@" class="cls-1" d="M26.357,13.993a10.062,10.062,0,0,0-7.68,3.074,9.763,9.763,0,0,0-2.691,7.039,9.571,9.571,0,0,0,2.769,7.228Q21.55,34,26.566,34a12.58,12.58,0,0,0,5.381-1.133A8.908,8.908,0,0,0,36,29.015H33.541A6.794,6.794,0,0,1,30.9,31.254a10.468,10.468,0,0,1-4.336.836,8.379,8.379,0,0,1-5.851-1.861q-2.221-2.023-2.22-6.014a8.268,8.268,0,0,1,2.09-5.879A7.278,7.278,0,0,1,26.2,16.043a6.955,6.955,0,0,1,5.2,1.915,5.793,5.793,0,0,1,1.724,4.261,6.8,6.8,0,0,1-1.254,4.153,3,3,0,0,1-2.194,1.483,0.493,0.493,0,0,1-.575-0.539,10.388,10.388,0,0,1,.392-1.807l1.776-6.581H28.943l-0.366,1.349A2.462,2.462,0,0,0,26.2,18.416a4.945,4.945,0,0,0-4.049,2.212,7.837,7.837,0,0,0-1.7,4.989,4.373,4.373,0,0,0,1.1,3.047A3.66,3.66,0,0,0,24.4,29.878a3.468,3.468,0,0,0,3.03-1.7,1.772,1.772,0,0,0,1.907,1.672,5.021,5.021,0,0,0,4.023-2.4,8.891,8.891,0,0,0,1.75-5.259,7.989,7.989,0,0,0-2.09-5.583,8.646,8.646,0,0,0-6.661-2.616h0Zm0.313,6.769a1.221,1.221,0,0,1,.914.378,1.251,1.251,0,0,1,.418.971,9.131,9.131,0,0,1-.314,1.429l-0.522,1.942a3.4,3.4,0,0,1-1.1,1.672,2.312,2.312,0,0,1-1.463.566,1.414,1.414,0,0,1-1.228-.539,2.286,2.286,0,0,1-.392-1.456,5.76,5.76,0,0,1,1.1-3.425,3.15,3.15,0,0,1,2.586-1.537h0Z"/>
</svg>
