<svg id="帮助" xmlns="http://www.w3.org/2000/svg" width="24" height="24" viewBox="0 0 48 48">
  <metadata><?xpacket begin="﻿" id="W5M0MpCehiHzreSzNTczkc9d"?>
<x:xmpmeta xmlns:x="adobe:ns:meta/" x:xmptk="Adobe XMP Core 5.6-c138 79.159824, 2016/09/14-01:09:01        ">
   <rdf:RDF xmlns:rdf="http://www.w3.org/1999/02/22-rdf-syntax-ns#">
      <rdf:Description rdf:about=""/>
   </rdf:RDF>
</x:xmpmeta>
                                                                                                    
                                                                                                    
                                                                                                    
                                                                                                    
                                                                                                    
                                                                                                    
                                                                                                    
                                                                                                    
                                                                                                    
                                                                                                    
                                                                                                    
                                                                                                    
                                                                                                    
                                                                                                    
                                                                                                    
                                                                                                    
                                                                                                    
                                                                                                    
                                                                                                    
                                                                                                    
                           
<?xpacket end="w"?></metadata>
<defs>
    <style>
      .cls-1 {
        fill: #999;
        fill-rule: evenodd;
      }
    </style>
  </defs>
  <path id="_1" data-name="1" class="cls-1" d="M24,46A22,22,0,1,1,46,24,22,22,0,0,1,24,46ZM24,6A18,18,0,1,0,42,24,18,18,0,0,0,24,6Z"/>
  <path id="_" data-name="?" class="cls-1" d="M24.751,11.307a8.666,8.666,0,0,0-6.3,2.268,8.244,8.244,0,0,0-2.34,6.264h4.1a5.962,5.962,0,0,1,.9-3.564,3.955,3.955,0,0,1,3.384-1.44,3.9,3.9,0,0,1,2.88,1.008,4.124,4.124,0,0,1,.036,5.364l-0.432.5q-3.529,3.132-4.212,4.572a7.688,7.688,0,0,0-.72,3.528v0.5h4.14v-0.5a5.238,5.238,0,0,1,.54-2.376,5.423,5.423,0,0,1,1.44-1.764q2.519-2.2,3.1-2.844A7.141,7.141,0,0,0,32.6,18.4a6.5,6.5,0,0,0-2.16-5.184,8.194,8.194,0,0,0-5.688-1.908h0ZM24.1,32.079a2.631,2.631,0,0,0-1.944.756,2.7,2.7,0,0,0,0,3.888,2.641,2.641,0,0,0,1.944.792,2.967,2.967,0,0,0,2.016-.756,2.687,2.687,0,0,0,.792-1.98,2.645,2.645,0,0,0-.792-1.944,2.8,2.8,0,0,0-2.016-.756h0Z"/>
</svg>
