<svg id="分享" xmlns="http://www.w3.org/2000/svg" width="24" height="24" viewBox="0 0 48 48">
  <metadata><?xpacket begin="﻿" id="W5M0MpCehiHzreSzNTczkc9d"?>
<x:xmpmeta xmlns:x="adobe:ns:meta/" x:xmptk="Adobe XMP Core 5.6-c138 79.159824, 2016/09/14-01:09:01        ">
   <rdf:RDF xmlns:rdf="http://www.w3.org/1999/02/22-rdf-syntax-ns#">
      <rdf:Description rdf:about=""/>
   </rdf:RDF>
</x:xmpmeta>
                                                                                                    
                                                                                                    
                                                                                                    
                                                                                                    
                                                                                                    
                                                                                                    
                                                                                                    
                                                                                                    
                                                                                                    
                                                                                                    
                                                                                                    
                                                                                                    
                                                                                                    
                                                                                                    
                                                                                                    
                                                                                                    
                                                                                                    
                                                                                                    
                                                                                                    
                                                                                                    
                           
<?xpacket end="w"?></metadata>
<defs>
    <style>
      .cls-1 {
        fill: #999;
        fill-rule: evenodd;
      }
    </style>
  </defs>
  <path id="椭圆_1054_拷贝_2" data-name="椭圆 1054 拷贝 2" class="cls-1" d="M34,26a11.955,11.955,0,0,1-8.672-3.72l-5.977,5.152c-0.02.02-.047,0.026-0.068,0.045a8.775,8.775,0,0,1,.626,4.733L30.717,34.7a8.005,8.005,0,1,1-.689,3.84L19,36a1.987,1.987,0,0,1-.478-0.064,9.007,9.007,0,1,1-1.54-11.648l6.125-5.279A11.994,11.994,0,1,1,34,26Zm4,16a4,4,0,1,0-4-4A4,4,0,0,0,38,42ZM11,26a5,5,0,1,0,5,5A5,5,0,0,0,11,26ZM34,6a8,8,0,1,0,8,8A8,8,0,0,0,34,6Z"/>
</svg>
