<svg id="语言" xmlns="http://www.w3.org/2000/svg" width="24" height="24" viewBox="0 0 48 48">
  <metadata><?xpacket begin="﻿" id="W5M0MpCehiHzreSzNTczkc9d"?>
<x:xmpmeta xmlns:x="adobe:ns:meta/" x:xmptk="Adobe XMP Core 5.6-c138 79.159824, 2016/09/14-01:09:01        ">
   <rdf:RDF xmlns:rdf="http://www.w3.org/1999/02/22-rdf-syntax-ns#">
      <rdf:Description rdf:about=""/>
   </rdf:RDF>
</x:xmpmeta>
                                                                                                    
                                                                                                    
                                                                                                    
                                                                                                    
                                                                                                    
                                                                                                    
                                                                                                    
                                                                                                    
                                                                                                    
                                                                                                    
                                                                                                    
                                                                                                    
                                                                                                    
                                                                                                    
                                                                                                    
                                                                                                    
                                                                                                    
                                                                                                    
                                                                                                    
                                                                                                    
                           
<?xpacket end="w"?></metadata>
<defs>
    <style>
      .cls-1 {
        fill: #999;
        fill-rule: evenodd;
      }
    </style>
  </defs>
  <path id="_2" data-name="2" class="cls-1" d="M46,24a21.91,21.91,0,0,1-5.029,14h0q-0.651.788-1.374,1.512c-0.275.276-.572,0.529-0.861,0.79-0.206.186-.4,0.384-0.612,0.562l0,0a21.97,21.97,0,0,1-28.243,0l0,0c-0.212-.178-0.407-0.376-0.612-0.562-0.289-.261-0.586-0.514-0.861-0.79Q7.682,38.788,7.029,38h0a22,22,0,0,1,0-28h0Q7.68,9.212,8.4,8.488c0.275-.276.572-0.529,0.861-0.79,0.206-.186.4-0.384,0.612-0.562l0,0a21.97,21.97,0,0,1,28.243,0l0,0c0.212,0.178.407,0.376,0.612,0.562,0.289,0.261.586,0.514,0.861,0.79Q40.318,9.212,40.971,10h0A21.91,21.91,0,0,1,46,24Zm-4.124,2H35.942a37.134,37.134,0,0,1-.985,6.951,22.01,22.01,0,0,1,3.15,2.2A17.881,17.881,0,0,0,41.876,26ZM35.292,38a18.085,18.085,0,0,0-1.572-1.142A23.629,23.629,0,0,1,32.218,40,18.083,18.083,0,0,0,35.292,38ZM24,42c2.547,0,4.811-2.688,6.277-6.861a17.871,17.871,0,0,0-12.553,0C19.189,39.312,21.453,42,24,42Zm0-12a21.963,21.963,0,0,1,7.32,1.248A36.982,36.982,0,0,0,31.948,26h-15.9a36.982,36.982,0,0,0,.629,5.248A21.963,21.963,0,0,1,24,30ZM15.782,40a23.629,23.629,0,0,1-1.5-3.143A18.085,18.085,0,0,0,12.708,38,18.083,18.083,0,0,0,15.782,40Zm-5.889-4.85a22.012,22.012,0,0,1,3.15-2.2A37.134,37.134,0,0,1,12.059,26H6.124A17.88,17.88,0,0,0,9.893,35.152ZM6.124,22h5.934a37.134,37.134,0,0,1,.985-6.951,22.012,22.012,0,0,1-3.15-2.2A17.88,17.88,0,0,0,6.124,22Zm6.584-12a18.093,18.093,0,0,0,1.572,1.142A23.628,23.628,0,0,1,15.782,8,18.079,18.079,0,0,0,12.708,10ZM24,6c-2.547,0-4.811,2.688-6.277,6.861A17.878,17.878,0,0,0,24,14a17.878,17.878,0,0,0,6.277-1.139C28.812,8.688,26.547,6,24,6Zm0,12a21.963,21.963,0,0,1-7.32-1.248A36.982,36.982,0,0,0,16.052,22h15.9a36.982,36.982,0,0,0-.629-5.248A21.963,21.963,0,0,1,24,18ZM32.218,8a23.628,23.628,0,0,1,1.5,3.143A18.093,18.093,0,0,0,35.292,10,18.079,18.079,0,0,0,32.218,8Zm5.889,4.85a22.01,22.01,0,0,1-3.15,2.2A37.134,37.134,0,0,1,35.942,22h5.934A17.881,17.881,0,0,0,38.107,12.848Z"/>
</svg>
