<svg id="货币" xmlns="http://www.w3.org/2000/svg" width="24" height="24" viewBox="0 0 48 48">
  <metadata><?xpacket begin="﻿" id="W5M0MpCehiHzreSzNTczkc9d"?>
<x:xmpmeta xmlns:x="adobe:ns:meta/" x:xmptk="Adobe XMP Core 5.6-c138 79.159824, 2016/09/14-01:09:01        ">
   <rdf:RDF xmlns:rdf="http://www.w3.org/1999/02/22-rdf-syntax-ns#">
      <rdf:Description rdf:about=""/>
   </rdf:RDF>
</x:xmpmeta>
                                                                                                    
                                                                                                    
                                                                                                    
                                                                                                    
                                                                                                    
                                                                                                    
                                                                                                    
                                                                                                    
                                                                                                    
                                                                                                    
                                                                                                    
                                                                                                    
                                                                                                    
                                                                                                    
                                                                                                    
                                                                                                    
                                                                                                    
                                                                                                    
                                                                                                    
                                                                                                    
                           
<?xpacket end="w"?></metadata>
<defs>
    <style>
      .cls-1 {
        fill: #999;
        fill-rule: evenodd;
      }
    </style>
  </defs>
  <path id="_3" data-name="3" class="cls-1" d="M40,40H8a6,6,0,0,1-6-6V14A6,6,0,0,1,8,8H40a6,6,0,0,1,6,6V34A6,6,0,0,1,40,40Zm2-24a4,4,0,0,0-4-4H10a4,4,0,0,0-4,4V32a4,4,0,0,0,4,4H38a4,4,0,0,0,4-4V16Z"/>
  <path id="_2" data-name="2" class="cls-1" d="M30,8h4A12,12,0,0,0,46,20v4A16,16,0,0,1,30,8Zm4,32H30A16,16,0,0,1,46,24v4A12,12,0,0,0,34,40ZM2,24V20A12,12,0,0,0,14,8h4A16,16,0,0,1,2,24ZM18,40H14A12,12,0,0,0,2,28V24A16,16,0,0,1,18,40Z"/>
  <path id="_1" data-name="1" class="cls-1" d="M24,32a8,8,0,1,1,8-8A8,8,0,0,1,24,32Zm0-12a4,4,0,1,0,4,4A4,4,0,0,0,24,20Z"/>
</svg>
