<svg xmlns="http://www.w3.org/2000/svg" width="24" height="24" viewBox="0 0 48 48">
  <metadata><?xpacket begin="﻿" id="W5M0MpCehiHzreSzNTczkc9d"?>
<x:xmpmeta xmlns:x="adobe:ns:meta/" x:xmptk="Adobe XMP Core 5.6-c138 79.159824, 2016/09/14-01:09:01        ">
   <rdf:RDF xmlns:rdf="http://www.w3.org/1999/02/22-rdf-syntax-ns#">
      <rdf:Description rdf:about=""/>
   </rdf:RDF>
</x:xmpmeta>
                                                                                                    
                                                                                                    
                                                                                                    
                                                                                                    
                                                                                                    
                                                                                                    
                                                                                                    
                                                                                                    
                                                                                                    
                                                                                                    
                                                                                                    
                                                                                                    
                                                                                                    
                                                                                                    
                                                                                                    
                                                                                                    
                                                                                                    
                                                                                                    
                                                                                                    
                                                                                                    
                           
<?xpacket end="w"?></metadata>
<defs>
    <style>
      .cls-1 {
        fill: #999;
        fill-rule: evenodd;
      }
    </style>
  </defs>
  <path id="策略" class="cls-1" d="M42,26H18a2,2,0,0,1,0-4H42A2,2,0,0,1,42,26Zm0-12H18a2,2,0,0,1,0-4H42A2,2,0,0,1,42,14ZM10,41H8a4,4,0,0,1-4-4V35a4,4,0,0,1,4-4h2a4,4,0,0,1,4,4v2A4,4,0,0,1,10,41Zm0-6H8v2h2V35Zm0-6H8a4,4,0,0,1-4-4V23a4,4,0,0,1,4-4h2a4,4,0,0,1,4,4v2A4,4,0,0,1,10,29Zm0-6H8v2h2V23Zm0-6H8a4,4,0,0,1-4-4V11A4,4,0,0,1,8,7h2a4,4,0,0,1,4,4v2A4,4,0,0,1,10,17Zm0-6H8v2h2V11Zm8,23H42a2,2,0,0,1,0,4H18A2,2,0,0,1,18,34Z"/>
</svg>
