<svg xmlns="http://www.w3.org/2000/svg" width="24" height="24" viewBox="0 0 48 48">
  <metadata><?xpacket begin="﻿" id="W5M0MpCehiHzreSzNTczkc9d"?>
<x:xmpmeta xmlns:x="adobe:ns:meta/" x:xmptk="Adobe XMP Core 5.6-c138 79.159824, 2016/09/14-01:09:01        ">
   <rdf:RDF xmlns:rdf="http://www.w3.org/1999/02/22-rdf-syntax-ns#">
      <rdf:Description rdf:about=""/>
   </rdf:RDF>
</x:xmpmeta>
                                                                                                    
                                                                                                    
                                                                                                    
                                                                                                    
                                                                                                    
                                                                                                    
                                                                                                    
                                                                                                    
                                                                                                    
                                                                                                    
                                                                                                    
                                                                                                    
                                                                                                    
                                                                                                    
                                                                                                    
                                                                                                    
                                                                                                    
                                                                                                    
                                                                                                    
                                                                                                    
                           
<?xpacket end="w"?></metadata>
<defs>
    <style>
      .cls-1 {
        fill: #999;
        fill-rule: evenodd;
      }
    </style>
  </defs>
  <path id="反馈" class="cls-1" d="M42,40H14a6,6,0,0,1-6-6V14a6,6,0,0,1,6-6H42a6,6,0,0,1,6,6V34A6,6,0,0,1,42,40ZM12,32a4,4,0,0,0,4,4H40a4,4,0,0,0,4-4V16a3.967,3.967,0,0,0-.379-1.676L32.2,26.187a5.819,5.819,0,0,1-8.4,0L12.379,14.324A3.967,3.967,0,0,0,12,16V32Zm4-20c-0.089,0-.173.021-0.261,0.026L25.2,21.865a3.879,3.879,0,0,0,5.6,0l9.462-9.838C40.173,12.021,40.09,12,40,12H16ZM5,24H1a1,1,0,0,1-1-1V21a1,1,0,0,1,1-1H5a1,1,0,0,1,1,1v2A1,1,0,0,1,5,24Zm0-8H1a1,1,0,0,1-1-1V13a1,1,0,0,1,1-1H5a1,1,0,0,1,1,1v2A1,1,0,0,1,5,16Z"/>
</svg>
