<svg xmlns="http://www.w3.org/2000/svg" width="24" height="24" viewBox="0 0 48 48">
  <metadata><?xpacket begin="﻿" id="W5M0MpCehiHzreSzNTczkc9d"?>
<x:xmpmeta xmlns:x="adobe:ns:meta/" x:xmptk="Adobe XMP Core 5.6-c138 79.159824, 2016/09/14-01:09:01        ">
   <rdf:RDF xmlns:rdf="http://www.w3.org/1999/02/22-rdf-syntax-ns#">
      <rdf:Description rdf:about=""/>
   </rdf:RDF>
</x:xmpmeta>
                                                                                                    
                                                                                                    
                                                                                                    
                                                                                                    
                                                                                                    
                                                                                                    
                                                                                                    
                                                                                                    
                                                                                                    
                                                                                                    
                                                                                                    
                                                                                                    
                                                                                                    
                                                                                                    
                                                                                                    
                                                                                                    
                                                                                                    
                                                                                                    
                                                                                                    
                                                                                                    
                           
<?xpacket end="w"?></metadata>
<defs>
    <style>
      .cls-1 {
        fill: #999;
        fill-rule: evenodd;
      }
    </style>
  </defs>
  <path id="进阶设置" class="cls-1" d="M42,26H35.859A3.991,3.991,0,0,1,32,29H30a3.991,3.991,0,0,1-3.859-3H6a2,2,0,0,1,0-4H26.141A3.991,3.991,0,0,1,30,19h2a3.991,3.991,0,0,1,3.859,3H42A2,2,0,0,1,42,26ZM32,23H30v2h2V23Zm10-9H21.859A3.991,3.991,0,0,1,18,17H16a3.991,3.991,0,0,1-3.859-3H6a2,2,0,0,1,0-4h6.141A3.991,3.991,0,0,1,16,7h2a3.991,3.991,0,0,1,3.859,3H42A2,2,0,0,1,42,14ZM18,11H16v2h2V11ZM6,34h6.141A3.991,3.991,0,0,1,16,31h2a3.991,3.991,0,0,1,3.859,3H42a2,2,0,0,1,0,4H21.859A3.991,3.991,0,0,1,18,41H16a3.991,3.991,0,0,1-3.859-3H6A2,2,0,0,1,6,34Zm10,3h2V35H16v2Z"/>
</svg>
