<svg id="通知" xmlns="http://www.w3.org/2000/svg" width="24" height="24" viewBox="0 0 48 48">
  <metadata><?xpacket begin="﻿" id="W5M0MpCehiHzreSzNTczkc9d"?>
<x:xmpmeta xmlns:x="adobe:ns:meta/" x:xmptk="Adobe XMP Core 5.6-c138 79.159824, 2016/09/14-01:09:01        ">
   <rdf:RDF xmlns:rdf="http://www.w3.org/1999/02/22-rdf-syntax-ns#">
      <rdf:Description rdf:about=""/>
   </rdf:RDF>
</x:xmpmeta>
                                                                                                    
                                                                                                    
                                                                                                    
                                                                                                    
                                                                                                    
                                                                                                    
                                                                                                    
                                                                                                    
                                                                                                    
                                                                                                    
                                                                                                    
                                                                                                    
                                                                                                    
                                                                                                    
                                                                                                    
                                                                                                    
                                                                                                    
                                                                                                    
                                                                                                    
                                                                                                    
                           
<?xpacket end="w"?></metadata>
<defs>
    <style>
      .cls-1 {
        fill: #999;
        fill-rule: evenodd;
      }
    </style>
  </defs>
  <path id="_2" data-name="2" class="cls-1" d="M30,40v0a6,6,0,0,1-12,0c-8.667,0-14,.011-14,0a13.966,13.966,0,0,1,4-9.571V20A16,16,0,0,1,21,4.291V4a2,2,0,0,1,2-2h2a2,2,0,0,1,2,2V4.291A16,16,0,0,1,40,20V30.429A13.966,13.966,0,0,1,44,40C44.059,39.979,38.685,39.993,30,40Zm-6,2a2,2,0,0,0,2-2H22A2,2,0,0,0,24,42Zm12-9.595V20a12,12,0,0,0-24,0V32.405c-1.88,1-3,2.246-3,3.595H39C39,34.651,37.88,33.407,36,32.405Z"/>
</svg>
