<?xml version="1.0" encoding="utf-8"?>
<!-- Generator: Adobe Illustrator 21.0.0, SVG Export Plug-In . SVG Version: 6.00 Build 0)  -->
<svg version="1.1" id="Tab_Bar" xmlns="http://www.w3.org/2000/svg" xmlns:xlink="http://www.w3.org/1999/xlink" x="0px" y="0px"
	 viewBox="0 0 24 24" style="enable-background:new 0 0 24 24;" xml:space="preserve">
<style type="text/css">
	.st0{display:none;}
	.st1{fill:none;}
	.st2{fill:#999899;stroke:#999899;stroke-width:0.25;stroke-linecap:round;stroke-miterlimit:10;}
</style>
<g id="Tab_4" class="st0">
	
		<image style="display:inline;overflow:visible;enable-background:new    ;" width="23" height="23" xlink:href="ED112F86.png"  transform="matrix(1 0 0 1 0.5 0.5)">
	</image>
	<path class="st1" d="M0,0"/>
</g>
<g>
	<polygon class="st2" points="5.5,15.8 2.7,20.5 2.9,20.7 6.7,17 	"/>
	<polygon class="st2" points="3.5,21.3 3.8,21.5 8.4,18.7 7.3,17.6 	"/>
	<path class="st2" d="M23,1.8V1h-0.8c-4.3-0.1-8.5,1.5-11.5,4.5C10.3,6,9.8,6.5,9.5,7c-2.2-0.1-4.4,0.7-6,2.3
		c-0.9,0.9-1.5,1.9-1.9,3.1L1,14l1.6-0.5c1.3-0.4,2.7-0.4,3.9,0c-0.1,0.3-0.1,0.6-0.2,0.9L6.2,15l0.5,0.3c0.9,0.5,1.7,1.3,2.4,2.1
		l0.3,0.4l0.5-0.1c0.2,0,0.4-0.1,0.7-0.1c0.4,1.3,0.4,2.6,0,3.9L10,23l1.6-0.5c1.2-0.4,2.2-1,3.1-1.9c1.7-1.7,2.4-3.9,2.3-6
		c0.5-0.4,1-0.8,1.4-1.2C21.5,10.3,23.1,6.1,23,1.8z M20.6,6.9C19.2,6,18,4.8,17.1,3.4c1.4-0.5,2.8-0.7,4.3-0.8
		C21.3,4.1,21,5.6,20.6,6.9z M6.9,11.8c-0.8-0.2-1.5-0.4-2.3-0.4c-0.3,0-0.5,0-0.8,0C4,11,4.3,10.7,4.7,10.3c1-1,2.3-1.6,3.7-1.8
		C7.7,9.7,7.2,10.7,6.9,11.8z M13.6,19.4c-0.3,0.3-0.7,0.6-1.1,0.9c0.1-1.1,0-2.1-0.3-3.1c1.1-0.3,2.2-0.8,3.2-1.4
		C15.2,17,14.6,18.3,13.6,19.4z M10.1,15.9C9.5,15.2,8.8,14.5,8,14c0.5-2.8,1.8-5.3,3.8-7.3c1.1-1.1,2.3-2,3.6-2.6
		c1.1,1.8,2.6,3.3,4.4,4.4c-0.7,1.3-1.5,2.5-2.6,3.6C15.3,14.1,12.8,15.4,10.1,15.9z"/>
	<circle class="st2" cx="15" cy="9" r="2.1"/>
</g>
</svg>
