<svg id="Tab_Bar" data-name="Tab Bar" xmlns="http://www.w3.org/2000/svg" width="24" height="24" viewBox="0 0 48 48">
  <metadata><?xpacket begin="﻿" id="W5M0MpCehiHzreSzNTczkc9d"?>
<x:xmpmeta xmlns:x="adobe:ns:meta/" x:xmptk="Adobe XMP Core 5.6-c138 79.159824, 2016/09/14-01:09:01        ">
   <rdf:RDF xmlns:rdf="http://www.w3.org/1999/02/22-rdf-syntax-ns#">
      <rdf:Description rdf:about=""/>
   </rdf:RDF>
</x:xmpmeta>
                                                                                                    
                                                                                                    
                                                                                                    
                                                                                                    
                                                                                                    
                                                                                                    
                                                                                                    
                                                                                                    
                                                                                                    
                                                                                                    
                                                                                                    
                                                                                                    
                                                                                                    
                                                                                                    
                                                                                                    
                                                                                                    
                                                                                                    
                                                                                                    
                                                                                                    
                                                                                                    
                           
<?xpacket end="w"?></metadata>
<defs>
    <style>
      .cls-1 {
        fill: #999;
        fill-rule: evenodd;
      }
    </style>
  </defs>
  <g id="Tab_1_Selected" data-name="Tab 1 Selected">
    <path id="主页" class="cls-1" d="M47.394,24.42a2.015,2.015,0,0,1-2.823,0L42,21.885V43a4,4,0,0,1-4,4H10a4,4,0,0,1-4-4V21.854L3.4,24.42a2.015,2.015,0,0,1-2.823,0,1.954,1.954,0,0,1,0-2.788L19.749,2.722a6.043,6.043,0,0,1,8.47,0L34,8.423V3a2,2,0,0,1,4,0v9.368l9.394,9.264A1.954,1.954,0,0,1,47.394,24.42ZM20,43h8V29a2,2,0,0,0-2-2H22a2,2,0,0,0-2,2V43ZM26.808,6.9a4.029,4.029,0,0,0-5.647,0L9.908,18H10V40a3,3,0,0,0,3,3h3V27a4,4,0,0,1,4-4h8a4,4,0,0,1,4,4V43h3a3,3,0,0,0,3-3V18h0.06Z"/>
  </g>
</svg>
