<svg id="Tab_Bar" data-name="Tab Bar" xmlns="http://www.w3.org/2000/svg" width="24" height="24" viewBox="0 0 48 48">
  <metadata><?xpacket begin="﻿" id="W5M0MpCehiHzreSzNTczkc9d"?>
<x:xmpmeta xmlns:x="adobe:ns:meta/" x:xmptk="Adobe XMP Core 5.6-c138 79.159824, 2016/09/14-01:09:01        ">
   <rdf:RDF xmlns:rdf="http://www.w3.org/1999/02/22-rdf-syntax-ns#">
      <rdf:Description rdf:about=""/>
   </rdf:RDF>
</x:xmpmeta>
                                                                                                    
                                                                                                    
                                                                                                    
                                                                                                    
                                                                                                    
                                                                                                    
                                                                                                    
                                                                                                    
                                                                                                    
                                                                                                    
                                                                                                    
                                                                                                    
                                                                                                    
                                                                                                    
                                                                                                    
                                                                                                    
                                                                                                    
                                                                                                    
                                                                                                    
                                                                                                    
                           
<?xpacket end="w"?></metadata>
<defs>
    <style>
      .cls-1 {
        fill: #999;
        fill-rule: evenodd;
      }
    </style>
  </defs>
  <g id="Tab_2" data-name="Tab 2">
    <path id="二维码" class="cls-1" d="M43,45a2,2,0,0,1-2-2V33a2,2,0,0,1,4,0V43A2,2,0,0,1,43,45Zm0-16H27a2,2,0,0,1,0-4H43A2,2,0,0,1,43,29Zm-4-6H31a6,6,0,0,1-6-6V9a6,6,0,0,1,6-6h8a6,6,0,0,1,6,6v8A6,6,0,0,1,39,23ZM41,9a2,2,0,0,0-2-2H31a2,2,0,0,0-2,2v8a2,2,0,0,0,2,2h8a2,2,0,0,0,2-2V9ZM17,45H9a6,6,0,0,1-6-6V31a6,6,0,0,1,6-6h8a6,6,0,0,1,6,6v8A6,6,0,0,1,17,45Zm2-14a2,2,0,0,0-2-2H9a2,2,0,0,0-2,2v8a2,2,0,0,0,2,2h8a2,2,0,0,0,2-2V31Zm-2-8H9a6,6,0,0,1-6-6V9A6,6,0,0,1,9,3h8a6,6,0,0,1,6,6v8A6,6,0,0,1,17,23ZM19,9a2,2,0,0,0-2-2H9A2,2,0,0,0,7,9v8a2,2,0,0,0,2,2h8a2,2,0,0,0,2-2V9Zm8,22a2,2,0,0,1,2,2v4a2,2,0,0,1-4,0V33A2,2,0,0,1,27,31Zm8,0a2,2,0,0,1,2,2v8a2,2,0,0,1-4,0V33A2,2,0,0,1,35,31Z"/>
  </g>
</svg>
