<svg id="Tab_Bar" data-name="Tab Bar" xmlns="http://www.w3.org/2000/svg" width="24" height="24" viewBox="0 0 48 48">
  <metadata><?xpacket begin="﻿" id="W5M0MpCehiHzreSzNTczkc9d"?>
<x:xmpmeta xmlns:x="adobe:ns:meta/" x:xmptk="Adobe XMP Core 5.6-c138 79.159824, 2016/09/14-01:09:01        ">
   <rdf:RDF xmlns:rdf="http://www.w3.org/1999/02/22-rdf-syntax-ns#">
      <rdf:Description rdf:about=""/>
   </rdf:RDF>
</x:xmpmeta>
                                                                                                    
                                                                                                    
                                                                                                    
                                                                                                    
                                                                                                    
                                                                                                    
                                                                                                    
                                                                                                    
                                                                                                    
                                                                                                    
                                                                                                    
                                                                                                    
                                                                                                    
                                                                                                    
                                                                                                    
                                                                                                    
                                                                                                    
                                                                                                    
                                                                                                    
                                                                                                    
                           
<?xpacket end="w"?></metadata>
<defs>
    <style>
      .cls-1 {
        fill: #999;
        fill-rule: evenodd;
      }
    </style>
  </defs>
  <g id="Tab_5" data-name="Tab 5">
    <path id="设" class="cls-1" d="M44,28H41.539a17.872,17.872,0,0,1-2.312,5.569l1.744,1.744a2,2,0,0,1,0,2.828l-2.828,2.828a2,2,0,0,1-2.829,0l-1.744-1.744A17.87,17.87,0,0,1,28,41.539V44a2,2,0,0,1-2,2H22a2,2,0,0,1-2-2V41.539a17.87,17.87,0,0,1-5.57-2.312l-1.744,1.744a2,2,0,0,1-2.828,0L7.029,38.142a2,2,0,0,1,0-2.828l1.744-1.744A17.872,17.872,0,0,1,6.461,28H4a2,2,0,0,1-2-2V22a2,2,0,0,1,2-2H6.461a17.871,17.871,0,0,1,2.312-5.569L7.029,12.686a2,2,0,0,1,0-2.828L9.858,7.029a2,2,0,0,1,2.828,0L14.43,8.774A17.871,17.871,0,0,1,20,6.461V4a2,2,0,0,1,2-2h4a2,2,0,0,1,2,2V6.461a17.871,17.871,0,0,1,5.569,2.312l1.744-1.744a2,2,0,0,1,2.829,0l2.828,2.828a2,2,0,0,1,0,2.828L39.226,14.43A17.87,17.87,0,0,1,41.539,20H44a2,2,0,0,1,2,2v4A2,2,0,0,1,44,28ZM24,10A14,14,0,1,0,38,24,14,14,0,0,0,24,10Zm0,22a8,8,0,1,1,8-8A8,8,0,0,1,24,32Zm0-12a4,4,0,1,0,4,4A4,4,0,0,0,24,20Z"/>
  </g>
</svg>
